<svg width="85" height="24" viewBox="0 0 85 24" fill="none" xmlns="http://www.w3.org/2000/svg">
<path d="M6.81817 18.288C5.58617 18.288 4.49817 18.08 3.55417 17.664C2.61017 17.232 1.86617 16.624 1.32217 15.84C0.778172 15.04 0.498172 14.072 0.482172 12.936H3.72217C3.75417 13.72 4.03417 14.384 4.56217 14.928C5.10617 15.456 5.85017 15.72 6.79417 15.72C7.61017 15.72 8.25817 15.528 8.73817 15.144C9.21817 14.744 9.45817 14.216 9.45817 13.56C9.45817 12.872 9.24217 12.336 8.81017 11.952C8.39417 11.568 7.83417 11.256 7.13017 11.016C6.42617 10.776 5.67417 10.52 4.87417 10.248C3.57817 9.8 2.58617 9.224 1.89817 8.52C1.22617 7.816 0.890172 6.88 0.890172 5.712C0.874173 4.72 1.10617 3.872 1.58617 3.168C2.08217 2.448 2.75417 1.896 3.60217 1.512C4.45017 1.112 5.42617 0.912 6.53017 0.912C7.65017 0.912 8.63417 1.112 9.48217 1.512C10.3462 1.912 11.0182 2.472 11.4982 3.192C11.9942 3.912 12.2582 4.768 12.2902 5.76H9.00217C8.98617 5.168 8.75417 4.648 8.30617 4.2C7.87417 3.736 7.26617 3.504 6.48217 3.504C5.81017 3.488 5.24217 3.656 4.77817 4.008C4.33017 4.344 4.10617 4.84 4.10617 5.496C4.10617 6.056 4.28217 6.504 4.63417 6.84C4.98617 7.16 5.46617 7.432 6.07417 7.656C6.68217 7.88 7.37817 8.12 8.16217 8.376C8.99417 8.664 9.75417 9 10.4422 9.384C11.1302 9.768 11.6822 10.28 12.0982 10.92C12.5142 11.544 12.7222 12.352 12.7222 13.344C12.7222 14.224 12.4982 15.04 12.0502 15.792C11.6022 16.544 10.9382 17.152 10.0582 17.616C9.17817 18.064 8.09817 18.288 6.81817 18.288ZM20.3418 18C19.0938 18 18.0938 17.696 17.3418 17.088C16.5898 16.48 16.2138 15.4 16.2138 13.848V8.664H14.1738V6.096H16.2138L16.5738 2.904H19.2858V6.096H22.5018V8.664H19.2858V13.872C19.2858 14.448 19.4058 14.848 19.6458 15.072C19.9018 15.28 20.3338 15.384 20.9418 15.384H22.4298V18H20.3418ZM28.9507 18.288C27.9267 18.288 27.0867 18.128 26.4307 17.808C25.7747 17.472 25.2867 17.032 24.9667 16.488C24.6467 15.944 24.4867 15.344 24.4867 14.688C24.4867 13.584 24.9187 12.688 25.7827 12C26.6467 11.312 27.9427 10.968 29.6707 10.968H32.6947V10.68C32.6947 9.864 32.4627 9.264 31.9987 8.88C31.5347 8.496 30.9587 8.304 30.2707 8.304C29.6467 8.304 29.1027 8.456 28.6387 8.76C28.1747 9.048 27.8867 9.48 27.7747 10.056H24.7747C24.8547 9.192 25.1427 8.44 25.6387 7.8C26.1507 7.16 26.8067 6.672 27.6067 6.336C28.4067 5.984 29.3027 5.808 30.2947 5.808C31.9907 5.808 33.3267 6.232 34.3027 7.08C35.2787 7.928 35.7667 9.128 35.7667 10.68V18H33.1507L32.8627 16.08C32.5107 16.72 32.0147 17.248 31.3747 17.664C30.7507 18.08 29.9427 18.288 28.9507 18.288ZM29.6467 15.888C30.5267 15.888 31.2067 15.6 31.6867 15.024C32.1827 14.448 32.4947 13.736 32.6227 12.888H30.0067C29.1907 12.888 28.6067 13.04 28.2547 13.344C27.9027 13.632 27.7267 13.992 27.7267 14.424C27.7267 14.888 27.9027 15.248 28.2547 15.504C28.6067 15.76 29.0707 15.888 29.6467 15.888ZM38.4056 18V6.096H41.1416L41.4296 8.328C41.8616 7.56 42.4456 6.952 43.1816 6.504C43.9336 6.04 44.8136 5.808 45.8216 5.808V9.048H44.9576C44.2856 9.048 43.6856 9.152 43.1576 9.36C42.6296 9.568 42.2136 9.928 41.9096 10.44C41.6216 10.952 41.4776 11.664 41.4776 12.576V18H38.4056ZM52.9325 18C51.6845 18 50.6845 17.696 49.9325 17.088C49.1805 16.48 48.8045 15.4 48.8045 13.848V8.664H46.7645V6.096H48.8045L49.1645 2.904H51.8765V6.096H55.0925V8.664H51.8765V13.872C51.8765 14.448 51.9965 14.848 52.2365 15.072C52.4925 15.28 52.9245 15.384 53.5325 15.384H55.0205V18H52.9325ZM61.9014 18.288C60.4134 18.288 59.2614 17.824 58.4454 16.896C57.6454 15.968 57.2454 14.608 57.2454 12.816V6.096H60.2934V12.528C60.2934 13.552 60.5014 14.336 60.9174 14.88C61.3334 15.424 61.9894 15.696 62.8854 15.696C63.7334 15.696 64.4294 15.392 64.9734 14.784C65.5334 14.176 65.8134 13.328 65.8134 12.24V6.096H68.8854V18H66.1734L65.9334 15.984C65.5654 16.688 65.0294 17.248 64.3254 17.664C63.6374 18.08 62.8294 18.288 61.9014 18.288ZM71.7463 23.28V6.096H74.4823L74.8183 7.8C75.2023 7.272 75.7063 6.808 76.3303 6.408C76.9703 6.008 77.7943 5.808 78.8023 5.808C79.9223 5.808 80.9223 6.08 81.8023 6.624C82.6823 7.168 83.3783 7.912 83.8903 8.856C84.4023 9.8 84.6583 10.872 84.6583 12.072C84.6583 13.272 84.4023 14.344 83.8903 15.288C83.3783 16.216 82.6823 16.952 81.8023 17.496C80.9223 18.024 79.9223 18.288 78.8023 18.288C77.9063 18.288 77.1223 18.12 76.4503 17.784C75.7783 17.448 75.2343 16.976 74.8183 16.368V23.28H71.7463ZM78.1543 15.6C79.1303 15.6 79.9383 15.272 80.5783 14.616C81.2183 13.96 81.5383 13.112 81.5383 12.072C81.5383 11.032 81.2183 10.176 80.5783 9.504C79.9383 8.832 79.1303 8.496 78.1543 8.496C77.1623 8.496 76.3463 8.832 75.7063 9.504C75.0823 10.16 74.7703 11.008 74.7703 12.048C74.7703 13.088 75.0823 13.944 75.7063 14.616C76.3463 15.272 77.1623 15.6 78.1543 15.6Z" fill="#FFFFFF"/>
</svg>
